<mxfile modified="2023-05-04T14:21:06.598Z" host="app.diagrams.net" agent="5.0 (Macintosh; Intel Mac OS X 10_15_7) AppleWebKit/537.36 (KHTML, like Gecko) Chrome/112.0.0.0 Safari/537.36" etag="8t-Amx9LCaAY0oLrNX37" version="20.8.15" type="github">
  <diagram id="Ht1M8jgEwFfnCIfOTk4-" name="Page-1">
    <mxGraphModel dx="3147" dy="1252" grid="1" gridSize="10" guides="1" tooltips="1" connect="1" arrows="1" fold="1" page="1" pageScale="1" pageWidth="1169" pageHeight="827" math="0" shadow="0">
      <root>
        <mxCell id="0" />
        <mxCell id="1" parent="0" />
        <mxCell id="UEzPUAAOIrF-is8g5C7q-129" style="edgeStyle=orthogonalEdgeStyle;rounded=0;orthogonalLoop=1;jettySize=auto;html=1;startArrow=open;startFill=0;endArrow=open;endFill=0;strokeWidth=2;strokeColor=#808080;" parent="1" source="UEzPUAAOIrF-is8g5C7q-114" target="UEzPUAAOIrF-is8g5C7q-115" edge="1">
          <mxGeometry relative="1" as="geometry">
            <Array as="points">
              <mxPoint x="471" y="591.5" />
              <mxPoint x="471" y="591.5" />
            </Array>
          </mxGeometry>
        </mxCell>
        <mxCell id="UEzPUAAOIrF-is8g5C7q-142" style="edgeStyle=orthogonalEdgeStyle;rounded=0;orthogonalLoop=1;jettySize=auto;html=1;startArrow=open;startFill=0;endArrow=open;endFill=0;strokeWidth=2;strokeColor=#808080;" parent="1" source="UEzPUAAOIrF-is8g5C7q-114" target="UEzPUAAOIrF-is8g5C7q-115" edge="1">
          <mxGeometry relative="1" as="geometry">
            <mxPoint x="418" y="586.5" as="sourcePoint" />
            <mxPoint x="551" y="586.5" as="targetPoint" />
            <Array as="points">
              <mxPoint x="471" y="571.5" />
              <mxPoint x="471" y="571.5" />
            </Array>
          </mxGeometry>
        </mxCell>
        <mxCell id="UEzPUAAOIrF-is8g5C7q-109" value="Bot-Hive Platform" style="outlineConnect=0;gradientColor=none;fontColor=#545B64;strokeColor=none;fillColor=#879196;dashed=0;verticalLabelPosition=bottom;verticalAlign=top;align=center;html=1;fontSize=12;fontStyle=0;aspect=fixed;shape=mxgraph.aws4.illustration_desktop;pointerEvents=1;labelBackgroundColor=#ffffff;" parent="1" vertex="1">
          <mxGeometry x="-220" y="482" width="100" height="91" as="geometry" />
        </mxCell>
        <mxCell id="i7FqfOwdQ3Smfex4xUqt-35" style="edgeStyle=orthogonalEdgeStyle;rounded=0;orthogonalLoop=1;jettySize=auto;html=1;startArrow=classic;startFill=1;" edge="1" parent="1" source="UEzPUAAOIrF-is8g5C7q-111" target="UEzPUAAOIrF-is8g5C7q-114">
          <mxGeometry relative="1" as="geometry" />
        </mxCell>
        <mxCell id="UEzPUAAOIrF-is8g5C7q-111" value="Amazon &lt;br&gt;Cognito" style="outlineConnect=0;fontColor=#232F3E;gradientColor=#F54749;gradientDirection=north;fillColor=#C7131F;strokeColor=#ffffff;dashed=0;verticalLabelPosition=bottom;verticalAlign=top;align=center;html=1;fontSize=12;fontStyle=0;aspect=fixed;shape=mxgraph.aws4.resourceIcon;resIcon=mxgraph.aws4.cognito;labelBackgroundColor=#ffffff;" parent="1" vertex="1">
          <mxGeometry x="428" y="339.5" width="78" height="78" as="geometry" />
        </mxCell>
        <mxCell id="i7FqfOwdQ3Smfex4xUqt-27" style="edgeStyle=orthogonalEdgeStyle;rounded=0;orthogonalLoop=1;jettySize=auto;html=1;entryX=1;entryY=0.75;entryDx=0;entryDy=0;startArrow=classic;startFill=1;" edge="1" parent="1" source="UEzPUAAOIrF-is8g5C7q-114" target="i7FqfOwdQ3Smfex4xUqt-20">
          <mxGeometry relative="1" as="geometry" />
        </mxCell>
        <mxCell id="UEzPUAAOIrF-is8g5C7q-114" value="Amazon API&lt;br&gt;Gateway&lt;br&gt;" style="outlineConnect=0;fontColor=#232F3E;gradientColor=#945DF2;gradientDirection=north;fillColor=#5A30B5;strokeColor=#ffffff;dashed=0;verticalLabelPosition=bottom;verticalAlign=top;align=center;html=1;fontSize=12;fontStyle=0;aspect=fixed;shape=mxgraph.aws4.resourceIcon;resIcon=mxgraph.aws4.api_gateway;labelBackgroundColor=#ffffff;" parent="1" vertex="1">
          <mxGeometry x="330" y="537.5" width="78" height="78" as="geometry" />
        </mxCell>
        <mxCell id="i7FqfOwdQ3Smfex4xUqt-8" style="edgeStyle=orthogonalEdgeStyle;rounded=0;orthogonalLoop=1;jettySize=auto;html=1;" edge="1" parent="1" source="UEzPUAAOIrF-is8g5C7q-115" target="i7FqfOwdQ3Smfex4xUqt-1">
          <mxGeometry relative="1" as="geometry" />
        </mxCell>
        <mxCell id="UEzPUAAOIrF-is8g5C7q-115" value="Lambda&lt;br&gt;function" style="outlineConnect=0;fontColor=#232F3E;gradientColor=none;fillColor=#D05C17;strokeColor=none;dashed=0;verticalLabelPosition=bottom;verticalAlign=top;align=center;html=1;fontSize=12;fontStyle=0;aspect=fixed;pointerEvents=1;shape=mxgraph.aws4.lambda_function;labelBackgroundColor=#ffffff;" parent="1" vertex="1">
          <mxGeometry x="541" y="537.5" width="78" height="78" as="geometry" />
        </mxCell>
        <mxCell id="i7FqfOwdQ3Smfex4xUqt-5" value="" style="edgeStyle=orthogonalEdgeStyle;rounded=0;orthogonalLoop=1;jettySize=auto;html=1;" edge="1" parent="1" source="i7FqfOwdQ3Smfex4xUqt-1" target="i7FqfOwdQ3Smfex4xUqt-2">
          <mxGeometry relative="1" as="geometry" />
        </mxCell>
        <mxCell id="i7FqfOwdQ3Smfex4xUqt-7" value="" style="edgeStyle=orthogonalEdgeStyle;rounded=0;orthogonalLoop=1;jettySize=auto;html=1;" edge="1" parent="1" source="i7FqfOwdQ3Smfex4xUqt-1" target="UEzPUAAOIrF-is8g5C7q-115">
          <mxGeometry relative="1" as="geometry" />
        </mxCell>
        <mxCell id="i7FqfOwdQ3Smfex4xUqt-1" value="GraphQL" style="shape=image;html=1;verticalAlign=top;verticalLabelPosition=bottom;labelBackgroundColor=#ffffff;imageAspect=0;aspect=fixed;image=https://cdn3.iconfinder.com/data/icons/brands-pack/240/graphql-128.png" vertex="1" parent="1">
          <mxGeometry x="710.5" y="531.25" width="90.5" height="90.5" as="geometry" />
        </mxCell>
        <mxCell id="i7FqfOwdQ3Smfex4xUqt-6" style="edgeStyle=orthogonalEdgeStyle;rounded=0;orthogonalLoop=1;jettySize=auto;html=1;" edge="1" parent="1" source="i7FqfOwdQ3Smfex4xUqt-2" target="i7FqfOwdQ3Smfex4xUqt-1">
          <mxGeometry relative="1" as="geometry" />
        </mxCell>
        <mxCell id="i7FqfOwdQ3Smfex4xUqt-2" value="Neo4J" style="html=1;verticalLabelPosition=bottom;align=center;labelBackgroundColor=#ffffff;verticalAlign=top;strokeWidth=2;strokeColor=#0080F0;shadow=0;dashed=0;shape=mxgraph.ios7.icons.data;" vertex="1" parent="1">
          <mxGeometry x="900.5" y="523.47" width="80" height="106.05" as="geometry" />
        </mxCell>
        <mxCell id="i7FqfOwdQ3Smfex4xUqt-30" style="edgeStyle=orthogonalEdgeStyle;rounded=0;orthogonalLoop=1;jettySize=auto;html=1;entryX=0.75;entryY=0;entryDx=0;entryDy=0;startArrow=classic;startFill=1;" edge="1" parent="1" source="i7FqfOwdQ3Smfex4xUqt-11" target="i7FqfOwdQ3Smfex4xUqt-20">
          <mxGeometry relative="1" as="geometry" />
        </mxCell>
        <mxCell id="i7FqfOwdQ3Smfex4xUqt-11" value="Cloudfront Cache" style="outlineConnect=0;dashed=0;verticalLabelPosition=bottom;verticalAlign=top;align=center;html=1;shape=mxgraph.aws3.cloudfront;fillColor=#F58536;gradientColor=none;" vertex="1" parent="1">
          <mxGeometry x="40" y="130" width="76.5" height="93" as="geometry" />
        </mxCell>
        <mxCell id="i7FqfOwdQ3Smfex4xUqt-23" style="edgeStyle=orthogonalEdgeStyle;rounded=0;orthogonalLoop=1;jettySize=auto;html=1;startArrow=classic;startFill=1;" edge="1" parent="1" source="i7FqfOwdQ3Smfex4xUqt-12" target="i7FqfOwdQ3Smfex4xUqt-20">
          <mxGeometry relative="1" as="geometry">
            <mxPoint x="120" y="453" as="targetPoint" />
          </mxGeometry>
        </mxCell>
        <mxCell id="i7FqfOwdQ3Smfex4xUqt-12" value="Angular SSR App" style="outlineConnect=0;fontColor=#232F3E;gradientColor=none;fillColor=#D05C17;strokeColor=none;dashed=0;verticalLabelPosition=bottom;verticalAlign=top;align=center;html=1;fontSize=12;fontStyle=0;aspect=fixed;pointerEvents=1;shape=mxgraph.aws4.lambda_function;labelBackgroundColor=#ffffff;" vertex="1" parent="1">
          <mxGeometry x="220" y="414" width="78" height="78" as="geometry" />
        </mxCell>
        <mxCell id="i7FqfOwdQ3Smfex4xUqt-18" style="edgeStyle=orthogonalEdgeStyle;rounded=0;orthogonalLoop=1;jettySize=auto;html=1;entryX=0.5;entryY=0;entryDx=0;entryDy=0;entryPerimeter=0;" edge="1" parent="1" source="i7FqfOwdQ3Smfex4xUqt-17" target="i7FqfOwdQ3Smfex4xUqt-11">
          <mxGeometry relative="1" as="geometry" />
        </mxCell>
        <mxCell id="i7FqfOwdQ3Smfex4xUqt-17" value="Images/Files" style="sketch=0;points=[[0,0,0],[0.25,0,0],[0.5,0,0],[0.75,0,0],[1,0,0],[0,1,0],[0.25,1,0],[0.5,1,0],[0.75,1,0],[1,1,0],[0,0.25,0],[0,0.5,0],[0,0.75,0],[1,0.25,0],[1,0.5,0],[1,0.75,0]];outlineConnect=0;fontColor=#232F3E;gradientColor=#60A337;gradientDirection=north;fillColor=#277116;strokeColor=#ffffff;dashed=0;verticalLabelPosition=bottom;verticalAlign=top;align=center;html=1;fontSize=12;fontStyle=0;aspect=fixed;shape=mxgraph.aws4.resourceIcon;resIcon=mxgraph.aws4.s3;" vertex="1" parent="1">
          <mxGeometry x="180.5" y="60" width="80" height="80" as="geometry" />
        </mxCell>
        <mxCell id="i7FqfOwdQ3Smfex4xUqt-25" style="edgeStyle=orthogonalEdgeStyle;rounded=0;orthogonalLoop=1;jettySize=auto;html=1;startArrow=classic;startFill=1;" edge="1" parent="1" source="i7FqfOwdQ3Smfex4xUqt-20" target="UEzPUAAOIrF-is8g5C7q-109">
          <mxGeometry relative="1" as="geometry" />
        </mxCell>
        <mxCell id="i7FqfOwdQ3Smfex4xUqt-20" value="Cloudflare" style="shape=image;verticalLabelPosition=bottom;labelBackgroundColor=default;verticalAlign=top;aspect=fixed;imageAspect=0;image=data:image/png,iVBORw0KGgoAAAANSUhEUgAAAOEAAADhCAMAAAAJbSJIAAAAt1BMVEX////0gSD6rT/zeQD71776qS/95MX0ewD0gBz6rDz0fhXzdwD0fAz6qzf0fxj+9u/6pyj3o2f+9Oz//Pj4s4P84c796931izf6sEX+7+T83Mb0hSb2nVv95dT7vWn3pmz6tFH1kEP959z5wZv5vZP6x6X4r3v80pv93bb7uFz+7Nb816j8yor2mFb4tof6za/1kUj0hy/7xYL6x6r92rD7xXz96M71jTv2nWD70bj7tlr7wHH8zpTY+wudAAAHE0lEQVR4nO2ceXeyOhDGBcSwCSp1wd3r0tbWrbdvW2/7/T/XJQEXBDQskfS88/ujp+e0Pc1jJs9MJoFSCQAAAAAAAAAAAAAAAAAAAAAAAAAAAAAAAAAAAAAAAAAAAAAAAAAAAPgLcAbdsku32bKKHkreWM35Ymvqui4R3G/Qrj7bO3bRA8sFq7leGToyTEU4R9EMpO9GG6fo8WWlO9q54oQYFA0Z2+kvFumsNaQpcfJ8TCRN9kWPNB3Num7ckueLlHrT3+c9zb6kUcnzwlVSZr9Lo/OFEugjGlFvXvSo6bFnekJ9vsZm0SOnpNuWkusjGvWHX5Eh11JsdrgJag+KHv5NnAlKrU/AtjotWsENykkdJoRe5zpS5zpdBryG8dkoWkY865QWE0TrtYoWEsciF4HuYtQ49Zu8BLppw+BS4iKTiV5I1DgM1FluM4gxe9zZzUbPU6BrN23OkkYzZ4Fu0ugXrSmA1cueBy+RZkWrOqeftZKJlNgtWtaJaa4uc0DpcbMpbjER6C7FUdHKDkzSb5euo3MSp3NGU4gTf9HaCJaQv48eQFz46dpgJlBQTA5KG4eyKZoOY1G0PrfgZjiFLujePX/bvigXG8xsxsN4uJ+4wXy0mrR3n5P+Yn/a28zYTqE7iXeqwJsLU0KaaSqKYmqGJPVmXvTYCstVSBTepflWnlwesiiGXsf78D3jIMW1G3t9g21kj1dDI4tNyR0EMe/1z2JboEZvyjDbH/8L44Rhra7EocI0Fx7+yY6p1zTarL3yNkzD1GqzX2c3MdbsBNoTDgQK5padwlHxIYpBzPb6eXcI08JsI2zdwylp0FlZDScxekgXttWwrFwTR4sTgYJBNvqPNYI6/n59X+azMBlv/OgxyE6mo4oEtVqVZXH4s8w8ndbN+1p3wlzh4Sxl8Ry1Kndel9kUbpjvGiiRNng4j0GFRGRt/JRlIus8JHsB175ExVC9VIhFyp2X9Bp5SRUa2Vo0qhECPY1PKQW2OMn2fjJ8CgXpSeNzuvPiMifLUGmT4bzFzCHRWHtMo/DfHE/ls+C3acSoZXhEfk7ROGbeQ6PE65cua9cEimJVrSRW+MCHQq1ORvN4JUj9SH1JqpDlaUQCpDIZzfhqkBJqPwkV8hGlvs9YsU56vhhfkynkw2m8eqZUoVGYVCIX2cLceYN5oVIoyokC1eEh4x+2vq+3jMan9p5EIgfrEB3Onf5QKhTlDxpprf26v9M4qLu1yWFI1ApV8Vbqt8oLQUeGxvxEiQJFOB6O/tAqFKvDq/oGi57Ey75XUNDpjml83R2O0yuZv9lHvOyYBPyc0FkLcUmvUJTj4tTpp3nOhRmmGeggdm7XNMc4/Y4WOM38FEGuGO3gnu89ySRGFeHOVuInPvHTQV+X7UKKwvSA+hwW2DX5mkC0CQ1xKdNLDE9iHo+B5Ac5PA9ToZeoji/+dsZDfeajGNIo5kGEZYd6LdaClQ2b268JUTAa0oV1/BUo+1GWqyrNTAbtdJ5yBpUA5gEtgHECISRJiHwl4G8R+Qn+RdNUhHZ9fqtpVnkbe119l6qLiomSePY5lVMJNJCpKD3Mbtduf35+Tibb7Wq7Wq2+XOr1+shlsVg8PKzX69ls6jKfbzab/b5c7na7TcIA03JxHKfRaNB2di2ntfz4eHp//Hn78/3837ijhqP3rLBppKpi0AMZU8PC2B6U48sb27asp1DVqp6q01WaNMHyXD0V4Y5/9VC6pXMZk69nPUp2uKaT/VZ/2suvxsxdQf9gvFXkeCvJC9s7xqwboY7TqjyH91bVN+83RmlLGQO/noS8qYT4IfZCQSC+c+Y8W+w8q1W//xVwnhl2nvncd54uwbWdFtWnYrkuU3Fd5vXtezh0XaaDfTXCTf2kP8gv1StKTPYwo7PHIW2gY+owzMn0+v7cef8WLzNFbHaskbroDvcKE6CYhr6I1Wg/DWtuvo8TFII0bFpcdEQDGEL0zRn7pZOg8iYKsdVwcjIRQPG7+EEqSfW5VvPofi47nnYUBxQpVLlZw1pSfa7V/HE3hTxU3GG0y3Lio0rdaDtXOOQzSDFS8IVDL4kD1FM4LpU+eQxSFy1QMb0maNAE6JQaHO17g5zftUwt0FXIxdlSJGc3EX9SCxTF0pzTZXg8MywlanVHzOGCq4LmHHR4X1TrxvWEq4xLK1ZPtmbmqDBBozuE+sytlZ6iNMsixBm/V7SQWPxb3U6aRH+k+lMqWkc8kpctqE9FI5Hf+Z1D0zv5dbLEKOns74pWEof/0Cj9sW8ktQa/TuOfjGYTqIp2qc9ptvBfhkF3RygW3NfnNeP7hXfkpWd6cNN777/Tlze8XGHL2ajhg4tBmUv8M5VWJRMcvIkBAAAAAAAAAAAAAAAAAAAAAAAAAAAAAAAAAAAAAAAAAAAAAAAAAADg7+N/9N2u4U9joEkAAAAASUVORK5CYII=;" vertex="1" parent="1">
          <mxGeometry y="480" width="95" height="95" as="geometry" />
        </mxCell>
        <mxCell id="i7FqfOwdQ3Smfex4xUqt-29" style="edgeStyle=orthogonalEdgeStyle;rounded=0;orthogonalLoop=1;jettySize=auto;html=1;startArrow=classic;startFill=1;" edge="1" parent="1" source="i7FqfOwdQ3Smfex4xUqt-28" target="i7FqfOwdQ3Smfex4xUqt-20">
          <mxGeometry relative="1" as="geometry" />
        </mxCell>
        <mxCell id="i7FqfOwdQ3Smfex4xUqt-28" value="BHED&amp;nbsp;" style="outlineConnect=0;dashed=0;verticalLabelPosition=bottom;verticalAlign=top;align=center;html=1;shape=mxgraph.aws3.generic;fillColor=#5294CF;gradientColor=none;" vertex="1" parent="1">
          <mxGeometry x="-209.75" y="260" width="79.5" height="79.5" as="geometry" />
        </mxCell>
        <mxCell id="i7FqfOwdQ3Smfex4xUqt-33" style="edgeStyle=orthogonalEdgeStyle;rounded=0;orthogonalLoop=1;jettySize=auto;html=1;entryX=1;entryY=0.25;entryDx=0;entryDy=0;startArrow=classic;startFill=1;" edge="1" parent="1" source="i7FqfOwdQ3Smfex4xUqt-31" target="i7FqfOwdQ3Smfex4xUqt-20">
          <mxGeometry relative="1" as="geometry">
            <Array as="points">
              <mxPoint x="130" y="209" />
              <mxPoint x="130" y="504" />
            </Array>
          </mxGeometry>
        </mxCell>
        <mxCell id="i7FqfOwdQ3Smfex4xUqt-31" value="AWS Greengrass" style="sketch=0;points=[[0,0,0],[0.25,0,0],[0.5,0,0],[0.75,0,0],[1,0,0],[0,1,0],[0.25,1,0],[0.5,1,0],[0.75,1,0],[1,1,0],[0,0.25,0],[0,0.5,0],[0,0.75,0],[1,0.25,0],[1,0.5,0],[1,0.75,0]];outlineConnect=0;fontColor=#232F3E;gradientColor=#60A337;gradientDirection=north;fillColor=#277116;strokeColor=#ffffff;dashed=0;verticalLabelPosition=bottom;verticalAlign=top;align=center;html=1;fontSize=12;fontStyle=0;aspect=fixed;shape=mxgraph.aws4.resourceIcon;resIcon=mxgraph.aws4.greengrass;" vertex="1" parent="1">
          <mxGeometry x="350" y="170" width="78" height="78" as="geometry" />
        </mxCell>
        <mxCell id="i7FqfOwdQ3Smfex4xUqt-37" style="edgeStyle=orthogonalEdgeStyle;rounded=0;orthogonalLoop=1;jettySize=auto;html=1;startArrow=classic;startFill=1;" edge="1" parent="1" source="i7FqfOwdQ3Smfex4xUqt-36" target="UEzPUAAOIrF-is8g5C7q-115">
          <mxGeometry relative="1" as="geometry" />
        </mxCell>
        <mxCell id="i7FqfOwdQ3Smfex4xUqt-36" value="Various DynamoDB databases" style="sketch=0;points=[[0,0,0],[0.25,0,0],[0.5,0,0],[0.75,0,0],[1,0,0],[0,1,0],[0.25,1,0],[0.5,1,0],[0.75,1,0],[1,1,0],[0,0.25,0],[0,0.5,0],[0,0.75,0],[1,0.25,0],[1,0.5,0],[1,0.75,0]];outlineConnect=0;fontColor=#232F3E;gradientColor=#4D72F3;gradientDirection=north;fillColor=#3334B9;strokeColor=#ffffff;dashed=0;verticalLabelPosition=bottom;verticalAlign=top;align=center;html=1;fontSize=12;fontStyle=0;aspect=fixed;shape=mxgraph.aws4.resourceIcon;resIcon=mxgraph.aws4.dynamodb;" vertex="1" parent="1">
          <mxGeometry x="680" y="336" width="78" height="78" as="geometry" />
        </mxCell>
      </root>
    </mxGraphModel>
  </diagram>
</mxfile>
